<svg width="20" height="20" viewBox="0 0 20 20" fill="none" xmlns="http://www.w3.org/2000/svg">
<path fill-rule="evenodd" clip-rule="evenodd" d="M2.00139 3.77778C2.00139 1.69137 4.03103 0 6.53472 0H14.0014C16.5051 0 18.5347 1.69137 18.5347 3.77778C18.5347 5.06813 17.7584 6.20739 16.5738 6.88889C17.7584 7.5704 18.5347 8.70965 18.5347 10C18.5347 12.0864 16.5051 13.7778 14.0014 13.7778C12.8827 13.7778 11.8587 13.4401 11.0681 12.8804V16.2222C11.0681 18.3086 9.03842 20 6.53472 20C4.03103 20 2.00139 18.3086 2.00139 16.2222C2.00139 14.9319 2.7777 13.7926 3.96235 13.1111C2.7777 12.4296 2.00139 11.2904 2.00139 10C2.00139 8.70965 2.7777 7.5704 3.96234 6.88889C2.7777 6.20738 2.00139 5.06813 2.00139 3.77778ZM6.53472 7.55556C4.91468 7.55556 3.60139 8.64997 3.60139 10C3.60139 11.35 4.91468 12.4444 6.53472 12.4444H9.46805V7.55556H6.53472ZM9.46805 6.22222H6.53472C4.91468 6.22222 3.60139 5.12781 3.60139 3.77778C3.60139 2.42775 4.91468 1.33333 6.53472 1.33333H9.46805V6.22222ZM14.0014 7.55556C12.3813 7.55556 11.0681 8.64997 11.0681 10C11.0681 11.35 12.3813 12.4444 14.0014 12.4444C15.6214 12.4444 16.9347 11.35 16.9347 10C16.9347 8.64997 15.6214 7.55556 14.0014 7.55556ZM11.0681 6.22222V1.33333H14.0014C15.6214 1.33333 16.9347 2.42775 16.9347 3.77778C16.9347 5.12781 15.6214 6.22222 14.0014 6.22222H11.0681ZM9.46805 13.7778H6.53472C4.91468 13.7778 3.60139 14.8722 3.60139 16.2222C3.60139 17.5723 4.91468 18.6667 6.53472 18.6667C8.15476 18.6667 9.46805 17.5723 9.46805 16.2222V13.7778Z" fill="#00C74F"/>
</svg>
