<svg width="20" height="20" viewBox="0 0 20 20" fill="none" xmlns="http://www.w3.org/2000/svg">
<g clip-path="url(#clip0_608_138)">
<path d="M14.5833 5.41666H14.5917M5.83333 1.66666H14.1667C16.4679 1.66666 18.3333 3.53214 18.3333 5.83332V14.1667C18.3333 16.4678 16.4679 18.3333 14.1667 18.3333H5.83333C3.53215 18.3333 1.66667 16.4678 1.66667 14.1667V5.83332C1.66667 3.53214 3.53215 1.66666 5.83333 1.66666ZM13.3333 9.47499C13.4362 10.1685 13.3177 10.8768 12.9948 11.4992C12.6719 12.1215 12.161 12.6262 11.5347 12.9414C10.9084 13.2566 10.1987 13.3663 9.5065 13.2549C8.81428 13.1435 8.17481 12.8167 7.67904 12.321C7.18328 11.8252 6.85646 11.1857 6.74507 10.4935C6.63368 9.80128 6.7434 9.09157 7.05862 8.4653C7.37383 7.83903 7.8785 7.3281 8.50083 7.00519C9.12316 6.68227 9.83147 6.56381 10.525 6.66665C11.2324 6.77156 11.8874 7.10121 12.3931 7.60691C12.8988 8.11261 13.2284 8.76755 13.3333 9.47499Z" stroke="#11C759" stroke-width="2" stroke-linecap="round" stroke-linejoin="round"/>
</g>
<defs>
<clipPath id="clip0_608_138">
<rect width="20" height="20" fill="white"/>
</clipPath>
</defs>
</svg>
