<svg width="24" height="24" viewBox="0 0 24 24" fill="none" xmlns="http://www.w3.org/2000/svg">
<path d="M17 21V19C17 17.9391 16.5786 16.9217 15.8284 16.1716C15.0783 15.4214 14.0609 15 13 15H5C3.93913 15 2.92172 15.4214 2.17157 16.1716C1.42143 16.9217 1 17.9391 1 19V21M23 21.0009V19.0009C22.9993 18.1146 22.7044 17.2536 22.1614 16.5532C21.6184 15.8527 20.8581 15.3524 20 15.1309M16 3.13086C16.8604 3.35116 17.623 3.85156 18.1676 4.55317C18.7122 5.25478 19.0078 6.11769 19.0078 7.00586C19.0078 7.89403 18.7122 8.75694 18.1676 9.45855C17.623 10.1602 16.8604 10.6606 16 10.8809M9 3C7.93913 3 6.92172 3.42143 6.17157 4.17157C5.42143 4.92172 5 5.93913 5 7C5 8.06087 5.42143 9.07828 6.17157 9.82843C6.92172 10.5786 7.93913 11 9 11C10.0609 11 11.0783 10.5786 11.8284 9.82843C12.5786 9.07828 13 8.06087 13 7C13 5.93913 12.5786 4.92172 11.8284 4.17157C11.0783 3.42143 10.0609 3 9 3Z" stroke="#2ED26F" stroke-width="2" stroke-linecap="round" stroke-linejoin="round"/>
</svg>
